<svg width="89" height="69" viewBox="0 0 89 69" fill="none" xmlns="http://www.w3.org/2000/svg">
<path d="M34 24.5C34 37.203 31.5 45 17 45C2.5 45 0 37.203 0 24.5C0 1.5 7.611 0 17 0C26.389 0 34 1.5 34 24.5Z" fill="black"/>
<path d="M89 25.0698C89 37.7728 86.5 45.5698 72 45.5698C57.5 45.5698 55 37.7728 55 25.0698C55 2.06982 62.611 0.569824 72 0.569824C81.389 0.569824 89 2.06982 89 25.0698Z" fill="black"/>
<path d="M59.5 55.5702C59.5 61.4902 54.068 66.5702 47 66.5702C39.932 66.5702 34.5 61.4902 34.5 55.5702C34.5 54.0562 34.844 53.2962 35.218 52.8762C35.6 52.4502 36.231 52.1322 37.327 51.9642C38.433 51.7952 39.808 51.8082 41.487 51.8792C41.883 51.8962 42.295 51.9162 42.72 51.9362C44.048 52.0002 45.504 52.0702 47 52.0702C48.496 52.0702 49.952 52.0002 51.28 51.9362C51.705 51.9162 52.117 51.8962 52.513 51.8792C54.192 51.8082 55.567 51.7952 56.673 51.9642C57.769 52.1322 58.4 52.4502 58.782 52.8762C59.156 53.2962 59.5 54.0562 59.5 55.5702Z" fill="black"/>
<path fill-rule="evenodd" clip-rule="evenodd" d="M37.1004 50.481C38.3674 50.2874 39.876 50.3093 41.5504 50.3801C41.8642 50.3936 42.1895 50.409 42.5183 50.4246C42.6088 50.4288 42.6995 50.4331 42.7905 50.4374L42.7922 50.4375C44.1245 50.5017 45.5456 50.5698 47 50.5698C48.4544 50.5698 49.8755 50.5017 51.2078 50.4375L51.2095 50.4374C51.3005 50.4331 51.3913 50.4288 51.4817 50.4246C51.8105 50.409 52.1349 50.3936 52.4487 50.3801C54.123 50.3093 55.6326 50.2874 56.8996 50.481C58.1675 50.6753 59.1909 51.0849 59.8988 51.8743L59.9022 51.8782C60.6059 52.6685 61 53.84 61 55.5698C61 62.4678 54.7385 68.0698 47 68.0698C39.2615 68.0698 33 62.4678 33 55.5698C33 53.84 33.3941 52.6685 34.0978 51.8782L34.1012 51.8743C34.8091 51.0849 35.8325 50.6753 37.1004 50.481Z" fill="black"/>
<path d="M77.5 18.0703C80.5376 18.0703 83 15.6079 83 12.5703C83 9.53275 80.5376 7.07031 77.5 7.07031C74.4624 7.07031 72 9.53275 72 12.5703C72 15.6079 74.4624 18.0703 77.5 18.0703Z" fill="white"/>
<path d="M25.5 18.0703C28.5376 18.0703 31 15.6079 31 12.5703C31 9.53275 28.5376 7.07031 25.5 7.07031C22.4624 7.07031 20 9.53275 20 12.5703C20 15.6079 22.4624 18.0703 25.5 18.0703Z" fill="white"/>
</svg>
