<svg width="3357" height="3212" viewBox="0 0 3357 3212" fill="none" xmlns="http://www.w3.org/2000/svg">
<path fill-rule="evenodd" clip-rule="evenodd" d="M258.666 1174.59C376.455 507.071 963.903 0 1670.44 0C2363.19 0 2941.45 487.463 3074.79 1135.68L3117.82 1167C3325.2 1317.99 3409.03 1586.21 3324.31 1827.67C3289.66 1926.41 3179.92 1977.16 3081.77 1939.82L3015.1 1914.46C2883.36 2267.55 2614.23 2554.5 2272.15 2711.62L2280.03 2758.66C2301.85 2888.98 2276.33 3022.77 2208.05 3136.05C2155.46 3223.3 2034.5 3238.13 1962.22 3166.18L1942.92 3146.96L258.666 1174.59ZM258.666 1174.59L1942.92 3146.96C1871.07 3075.44 1814.57 2990.14 1776.83 2896.23L1754.31 2840.17C1726.56 2841.76 1698.59 2842.56 1670.44 2842.56C1640.85 2842.56 1611.47 2841.67 1582.33 2839.92L1559.7 2896.23C1521.97 2990.14 1465.46 3075.44 1393.62 3146.96L1374.31 3166.18C1302.04 3238.13 1181.08 3223.3 1128.49 3136.05C1060.21 3022.77 1034.69 2888.98 1056.51 2758.66L1064.69 2709.76C748.592 2563.38 495.216 2305.98 355.654 1988.07L309.655 2011.17C200.065 2066.2 67.0553 2010.26 30.284 1893.69C-48.2383 1644.76 28.953 1373.17 226.851 1202.1L258.666 1174.59ZM242.236 1541.8C210.112 1627.15 204.599 1721.88 229.398 1812.97L284.584 1785.27C263.624 1706.58 249.298 1625.21 242.236 1541.8ZM1268.79 2785.99L1267.5 2793.67C1258.39 2848.13 1262.67 2903.58 1279.48 2955.41C1313.45 2913.76 1341 2867.16 1361.09 2817.15L1363.97 2809.99C1331.83 2803.05 1300.09 2795.04 1268.79 2785.99ZM1972.91 2810.85C2005 2804.02 2036.69 2796.11 2067.95 2787.19L2069.03 2793.67C2078.15 2848.13 2073.87 2903.58 2057.06 2955.41C2023.08 2913.76 1995.54 2867.16 1975.44 2817.15L1972.91 2810.85ZM3074.34 1709.04L3130.68 1730.47C3154.46 1641.45 3143.39 1548.58 3102.93 1469.25C3100.19 1551.13 3090.47 1631.25 3074.34 1709.04ZM1670.44 212.939C996.433 212.939 451.066 754.501 451.066 1421.28C451.066 2088.06 996.432 2629.62 1670.44 2629.62C2344.46 2629.62 2889.82 2088.06 2889.82 1421.28C2889.82 754.501 2344.46 212.939 1670.44 212.939Z" fill="black"/>
<path d="M1831.98 1409.58C1831.98 1476.54 1763.79 1534 1675.06 1534C1586.33 1534 1518.14 1476.54 1518.14 1409.58C1518.14 1392.46 1522.46 1383.86 1527.15 1379.11C1531.95 1374.29 1539.87 1370.69 1553.63 1368.79C1567.51 1366.88 1584.77 1367.03 1605.85 1367.83C1610.82 1368.02 1615.99 1368.25 1621.33 1368.48C1638 1369.2 1656.28 1369.99 1675.06 1369.99C1693.84 1369.99 1712.12 1369.2 1728.79 1368.48C1734.12 1368.25 1739.29 1368.02 1744.27 1367.83C1765.34 1367.03 1782.6 1366.88 1796.49 1368.79C1810.25 1370.69 1818.17 1374.29 1822.96 1379.11C1827.66 1383.86 1831.98 1392.46 1831.98 1409.58Z" fill="black"/>
<path fill-rule="evenodd" clip-rule="evenodd" d="M1373.96 1294.59C1534.27 1294.59 1561.92 1210.63 1561.92 1073.83C1561.92 826.153 1477.77 810 1373.96 810C1270.15 810 1186 826.153 1186 1073.83C1186 1210.63 1213.64 1294.59 1373.96 1294.59ZM1528.73 945.329C1528.73 978.04 1501.5 1004.56 1467.92 1004.56C1434.34 1004.56 1407.11 978.04 1407.11 945.329C1407.11 912.619 1434.34 886.102 1467.92 886.102C1501.5 886.102 1528.73 912.619 1528.73 945.329Z" fill="black"/>
<path fill-rule="evenodd" clip-rule="evenodd" d="M1982.04 1300.68C2142.36 1300.68 2170 1216.71 2170 1079.92C2170 832.242 2085.85 816.089 1982.04 816.089C1878.23 816.089 1794.08 832.242 1794.08 1079.92C1794.08 1216.71 1821.73 1300.68 1982.04 1300.68ZM2103.63 945.329C2103.63 978.04 2076.41 1004.56 2042.82 1004.56C2009.24 1004.56 1982.01 978.04 1982.01 945.329C1982.01 912.619 2009.24 886.102 2042.82 886.102C2076.41 886.102 2103.63 912.619 2103.63 945.329Z" fill="black"/>
</svg>
